<?xml version="1.0" standalone="no"?>
<!DOCTYPE svg PUBLIC "-//W3C//DTD SVG 20010904//EN"
 "http://www.w3.org/TR/2001/REC-SVG-20010904/DTD/svg10.dtd">
<svg version="1.0" xmlns="http://www.w3.org/2000/svg"
 width="1600.000000pt" height="1600.000000pt" viewBox="0 0 1600.000000 1600.000000"
 preserveAspectRatio="xMidYMid meet">
<metadata>
Created by potrace 1.11, written by Peter Selinger 2001-2013
</metadata>
<g transform="translate(0.000000,1600.000000) scale(0.100000,-0.100000)"
fill="#000000" stroke="none">
<path d="M14830 12066 c-14 -7 -55 -16 -92 -19 -38 -4 -77 -11 -87 -17 -11 -5
-43 -10 -71 -10 -29 0 -64 -7 -78 -15 -15 -8 -54 -25 -87 -38 -33 -14 -102
-43 -153 -66 -56 -25 -107 -41 -131 -41 -22 0 -63 -11 -93 -25 -29 -14 -67
-25 -84 -25 -17 0 -51 -7 -74 -15 -24 -8 -77 -15 -120 -15 -68 0 -86 -4 -146
-34 -38 -19 -82 -38 -99 -41 -51 -11 -88 -28 -141 -62 -31 -21 -72 -37 -105
-42 -30 -5 -70 -16 -89 -24 -19 -8 -62 -25 -95 -37 -33 -12 -78 -31 -100 -40
-22 -10 -74 -24 -115 -30 -84 -14 -175 -37 -295 -73 -44 -13 -102 -27 -129
-31 -28 -5 -74 -21 -104 -37 -30 -16 -70 -29 -88 -29 -19 0 -51 -9 -71 -20
-21 -11 -44 -20 -52 -20 -7 0 -37 -13 -65 -29 -43 -24 -66 -29 -144 -34 -89
-6 -156 -22 -276 -70 -28 -11 -61 -17 -76 -13 -32 6 -127 -36 -177 -78 -46
-39 -297 -115 -383 -116 -68 -1 -172 -29 -218 -60 -26 -17 -59 -30 -76 -30
-42 0 -153 -25 -198 -44 -21 -9 -47 -16 -59 -16 -54 0 -407 -112 -459 -146
-19 -13 -55 -26 -80 -30 -25 -4 -78 -20 -118 -35 -40 -16 -86 -29 -103 -29
-17 0 -56 -12 -87 -26 -38 -17 -68 -24 -92 -21 -38 4 -76 -7 -161 -46 -30 -14
-85 -37 -124 -52 -38 -15 -83 -35 -100 -45 -16 -10 -60 -20 -97 -24 -37 -4
-103 -19 -145 -35 -43 -16 -109 -32 -146 -35 -70 -7 -156 -34 -186 -59 -29
-24 -115 -51 -171 -53 -30 0 -104 -15 -165 -32 -60 -18 -128 -32 -150 -32 -26
0 -69 -15 -130 -44 -49 -25 -117 -55 -150 -67 -33 -13 -70 -31 -83 -40 -13
-10 -37 -21 -55 -24 -18 -4 -72 -18 -120 -32 -67 -19 -107 -24 -165 -22 -63 2
-90 -2 -147 -23 -38 -14 -101 -31 -140 -38 -75 -13 -187 -63 -248 -111 -48
-39 -91 -56 -154 -64 -28 -3 -67 -12 -86 -20 -20 -8 -49 -12 -70 -8 -23 3 -56
-2 -96 -16 -34 -11 -75 -21 -91 -21 -17 0 -66 -18 -109 -40 -44 -22 -115 -50
-158 -61 -43 -11 -93 -29 -111 -39 -45 -27 -149 -52 -182 -45 -15 3 -46 -1
-71 -10 -24 -9 -76 -24 -116 -34 -43 -11 -84 -29 -103 -44 -17 -15 -35 -27
-38 -27 -4 -1 -27 -5 -52 -10 -25 -5 -87 -14 -138 -20 -93 -10 -173 -40 -243
-93 -23 -16 -45 -20 -126 -22 -110 -3 -216 -32 -353 -98 -41 -19 -95 -39 -120
-42 -25 -4 -50 -11 -56 -16 -14 -11 -148 -59 -166 -59 -7 0 -38 -16 -68 -35
-30 -19 -66 -35 -80 -35 -15 0 -46 -6 -71 -14 -24 -8 -71 -19 -104 -25 -33 -7
-79 -16 -103 -21 -23 -6 -73 -10 -110 -10 -58 0 -79 -5 -138 -35 -38 -19 -81
-35 -95 -35 -14 0 -47 -11 -73 -25 -26 -14 -60 -25 -76 -25 -16 0 -53 -9 -82
-19 -29 -10 -76 -26 -104 -35 -28 -8 -78 -30 -110 -49 -92 -52 -159 -71 -249
-72 -75 0 -84 -3 -151 -41 -39 -23 -96 -47 -125 -54 -30 -6 -81 -20 -114 -31
-39 -12 -84 -18 -130 -17 -56 2 -82 -3 -130 -24 -135 -58 -162 -68 -200 -78
-22 -5 -62 -28 -89 -50 -41 -34 -55 -40 -95 -40 -25 0 -62 -5 -81 -10 -19 -6
-73 -12 -120 -14 -84 -4 -117 -13 -190 -56 -19 -11 -42 -20 -52 -20 -10 0 -32
-6 -50 -14 -35 -15 -81 -27 -218 -57 -87 -19 -186 -58 -230 -91 -14 -10 -47
-21 -75 -24 -27 -4 -72 -19 -100 -34 -34 -19 -71 -30 -118 -33 -37 -4 -82 -13
-100 -21 -119 -53 -149 -65 -177 -71 -18 -4 -56 -18 -85 -31 -53 -25 -53 -25
-39 -52 8 -15 14 -39 14 -53 0 -14 7 -48 16 -75 8 -27 19 -96 25 -154 13 -155
25 -216 50 -263 79 -151 97 -197 109 -284 5 -39 22 -89 43 -130 74 -144 106
-248 107 -343 0 -44 8 -73 39 -136 22 -43 44 -105 50 -136 5 -32 17 -71 26
-87 8 -17 15 -50 15 -75 0 -29 9 -62 25 -92 14 -26 25 -60 25 -76 0 -16 11
-46 25 -66 14 -20 30 -55 36 -77 6 -22 19 -58 29 -80 12 -29 19 -80 24 -179 8
-154 18 -188 71 -247 19 -22 35 -44 35 -51 0 -6 15 -43 34 -82 57 -120 63
-139 70 -210 4 -38 16 -107 26 -153 11 -46 20 -102 20 -124 0 -23 11 -61 25
-89 14 -27 25 -60 25 -72 0 -13 9 -41 19 -63 10 -22 21 -65 25 -95 13 -96 47
-200 66 -200 10 0 67 25 127 55 121 60 196 86 320 109 46 9 110 30 145 47 41
21 87 35 133 40 142 18 191 27 247 49 32 12 75 23 97 25 21 2 61 14 87 28 27
14 69 28 94 31 55 9 147 43 179 68 13 10 35 18 50 18 14 1 44 8 66 16 22 8 74
22 115 29 63 12 79 19 101 45 19 23 44 35 99 51 41 11 85 17 101 14 15 -3 53
1 85 10 89 25 185 55 224 71 19 7 60 18 90 24 121 22 181 38 206 55 32 21 71
33 144 45 97 17 132 28 373 126 33 14 79 24 105 24 76 0 147 23 175 56 20 23
41 33 98 46 41 10 94 20 119 22 77 9 151 25 163 34 17 14 166 72 183 72 8 0
40 9 72 19 31 11 86 23 122 27 36 4 83 16 104 27 22 10 80 28 129 38 49 10
115 30 146 45 30 15 77 31 103 35 27 4 61 17 76 28 49 34 152 63 239 67 91 4
114 12 151 55 22 27 29 29 97 29 76 0 210 37 295 81 21 11 65 24 97 29 34 4
100 27 157 54 59 27 113 46 134 46 19 0 60 12 91 27 67 32 115 42 241 51 83 6
102 11 146 39 28 17 76 38 105 46 76 22 145 45 209 72 30 13 87 28 125 34 39
7 97 20 130 30 52 17 128 37 313 83 24 6 59 21 77 34 33 22 166 64 270 86 28
5 106 28 175 51 80 26 140 40 166 39 45 -3 145 30 164 53 7 8 37 24 67 35 30
11 71 32 90 47 31 24 43 27 103 25 43 -2 83 3 111 14 68 25 249 74 299 81 25
3 50 10 56 15 21 16 227 79 279 85 33 4 77 20 129 49 57 32 89 44 120 44 36 0
302 70 328 86 21 13 132 34 173 32 33 -1 52 5 77 24 54 41 196 108 241 114 23
3 63 12 88 19 25 7 66 11 91 8 51 -6 130 19 268 85 44 20 106 40 150 48 95 15
184 48 235 88 49 38 154 66 250 66 67 0 142 16 181 39 42 24 127 51 162 51 20
0 58 11 83 24 45 25 209 72 349 102 41 9 99 29 128 45 29 15 59 26 66 23 7 -3
37 4 67 15 30 11 81 25 114 31 33 6 81 20 107 31 26 10 66 19 90 19 24 1 54 7
68 15 14 8 35 14 47 15 11 0 60 18 108 40 48 22 97 40 110 40 12 0 33 8 46 19
60 46 110 63 203 66 100 4 124 11 175 49 24 17 48 26 73 26 21 0 64 9 96 19
31 11 87 24 123 29 37 6 94 24 130 43 35 17 105 42 154 54 50 13 109 32 130
44 22 12 58 21 81 21 46 0 98 16 191 60 35 17 74 30 88 30 14 0 41 7 61 15 19
8 74 20 122 26 48 7 101 20 119 31 17 10 59 24 92 29 65 12 75 25 48 64 -25
37 -47 118 -47 176 0 31 -7 76 -15 99 -8 23 -15 56 -15 72 0 16 -11 54 -24 86
-35 85 -76 211 -76 236 0 21 -14 53 -60 131 -12 22 -35 90 -50 150 -16 61 -36
130 -45 155 -9 25 -24 81 -32 124 -8 44 -25 100 -38 125 -14 27 -29 82 -36
131 -6 47 -20 99 -29 115 -11 17 -25 76 -34 138 -13 99 -17 111 -49 146 -24
27 -36 52 -41 86 -4 26 -16 66 -26 89 -10 23 -23 63 -29 90 -7 27 -20 61 -30
75 -23 32 -61 165 -61 213 0 19 -7 55 -16 79 -8 24 -13 57 -9 73 5 29 -11 81
-56 184 -10 23 -19 56 -19 72 0 16 -5 41 -11 57 -7 15 -15 54 -19 85 -6 46
-19 73 -68 146 -63 95 -86 153 -97 242 -4 30 -13 83 -21 116 -8 34 -16 81 -19
105 -10 84 -17 90 -65 65z m-174 -403 c3 -10 15 -38 26 -62 12 -25 25 -79 29
-120 20 -183 25 -206 57 -262 17 -31 39 -76 48 -100 16 -46 20 -62 53 -254 15
-81 31 -139 51 -179 17 -32 30 -73 30 -90 0 -17 11 -53 23 -81 22 -48 34 -85
73 -225 18 -69 45 -128 75 -170 14 -20 19 -51 23 -151 l5 -126 57 -109 c31
-60 67 -142 80 -183 14 -40 31 -83 39 -94 8 -12 15 -37 15 -57 1 -56 16 -108
44 -149 21 -30 26 -49 26 -98 0 -64 32 -209 49 -226 6 -6 11 -20 11 -31 0 -12
11 -45 25 -74 19 -40 55 -176 55 -206 0 -2 -23 -23 -51 -45 -35 -28 -61 -41
-83 -41 -33 0 -93 -19 -141 -44 -16 -9 -39 -16 -51 -16 -12 0 -55 -15 -95 -34
-55 -26 -97 -37 -164 -44 -50 -6 -117 -20 -149 -31 -33 -12 -81 -21 -108 -21
-37 0 -68 -10 -129 -40 -44 -22 -93 -40 -109 -40 -16 0 -74 -18 -129 -40 -54
-22 -105 -40 -112 -40 -7 0 -31 -9 -54 -20 -62 -30 -128 -48 -162 -43 -18 3
-46 -3 -69 -15 -21 -10 -70 -25 -109 -32 -38 -7 -83 -20 -100 -30 -16 -10 -46
-20 -65 -23 -19 -3 -78 -24 -130 -47 -151 -67 -169 -72 -283 -80 -89 -6 -114
-11 -135 -29 -60 -47 -98 -60 -193 -66 -150 -8 -186 -18 -279 -74 -140 -84
-181 -101 -277 -112 -294 -34 -287 -33 -323 -61 -56 -42 -92 -58 -136 -58 -23
0 -66 -11 -98 -26 -31 -14 -83 -29 -116 -34 -33 -5 -73 -18 -90 -30 -16 -12
-47 -24 -67 -27 -21 -3 -55 -14 -75 -25 -21 -10 -57 -20 -80 -22 -25 -3 -89
-27 -151 -57 -116 -57 -180 -70 -241 -49 -44 14 -73 5 -150 -47 -26 -18 -57
-33 -69 -33 -11 0 -45 -12 -75 -26 -47 -22 -64 -25 -110 -20 -50 6 -60 3 -129
-34 -41 -22 -93 -43 -116 -47 -23 -3 -65 -19 -95 -35 -36 -18 -69 -28 -98 -28
-25 0 -62 -9 -83 -20 -22 -11 -59 -22 -83 -26 -23 -4 -56 -13 -72 -21 -16 -9
-52 -19 -80 -24 -28 -4 -84 -17 -124 -28 -43 -11 -88 -17 -108 -14 -26 4 -44
-1 -81 -25 -26 -16 -59 -33 -73 -37 -14 -4 -52 -23 -86 -41 -33 -19 -74 -34
-91 -34 -16 0 -52 -6 -79 -14 -27 -8 -80 -17 -119 -21 -103 -9 -123 -14 -154
-40 -15 -14 -50 -29 -77 -36 -53 -12 -76 -18 -201 -53 -100 -29 -123 -38 -242
-98 -78 -40 -102 -48 -149 -48 -51 0 -209 -16 -257 -25 -11 -2 -45 -20 -75
-40 -30 -19 -66 -35 -81 -35 -23 0 -71 -18 -174 -65 -16 -7 -48 -16 -70 -20
-21 -4 -52 -13 -67 -21 -15 -8 -45 -14 -68 -14 -22 0 -57 -8 -78 -19 -20 -10
-56 -21 -79 -24 -23 -3 -68 -17 -100 -32 -32 -14 -90 -30 -128 -35 -88 -11
-113 -21 -144 -54 -14 -14 -30 -26 -36 -26 -6 0 -32 -13 -56 -30 -42 -27 -53
-30 -165 -34 -65 -3 -135 -10 -154 -15 -19 -6 -58 -11 -87 -11 -46 0 -56 -4
-80 -30 -18 -20 -46 -36 -82 -46 -31 -8 -90 -27 -131 -41 -41 -14 -94 -27
-118 -29 -24 -1 -48 -7 -55 -12 -7 -5 -55 -21 -107 -36 -52 -15 -122 -38 -155
-52 -33 -14 -71 -28 -85 -30 -117 -21 -198 -45 -295 -89 -16 -7 -42 -17 -58
-20 -15 -4 -61 -22 -102 -40 -58 -25 -85 -31 -118 -28 -27 3 -62 -3 -99 -16
-144 -52 -172 -61 -190 -61 -11 0 -43 -11 -71 -24 -29 -13 -81 -27 -116 -31
-36 -3 -78 -13 -94 -21 -16 -9 -72 -24 -125 -34 -124 -25 -165 -37 -205 -60
-18 -10 -60 -28 -94 -39 -34 -11 -90 -37 -124 -57 -54 -32 -73 -38 -129 -39
-39 -1 -78 -9 -98 -19 -19 -10 -75 -26 -125 -36 -131 -26 -202 -45 -371 -102
-111 -37 -158 -48 -183 -43 -48 9 -168 -31 -212 -70 -49 -44 -106 -71 -166
-79 -82 -11 -198 -38 -226 -52 -14 -7 -52 -15 -85 -18 -70 -7 -113 -18 -146
-40 -14 -9 -63 -21 -109 -27 -58 -8 -115 -25 -184 -55 -55 -23 -120 -49 -145
-57 -25 -9 -59 -23 -76 -31 -17 -9 -66 -21 -109 -26 -43 -5 -103 -21 -133 -35
-30 -14 -60 -25 -67 -25 -31 0 -87 120 -105 225 -14 85 -53 219 -86 300 -27
64 -64 196 -64 227 0 10 -9 47 -21 81 -11 34 -23 91 -26 126 -5 70 -40 187
-78 265 -19 37 -23 58 -19 91 4 28 1 51 -10 73 -9 17 -16 51 -16 75 0 44 -55
183 -86 218 -8 9 -19 42 -25 74 -6 32 -21 81 -33 109 -13 28 -25 76 -29 106
-3 30 -18 82 -33 115 -15 34 -33 101 -41 154 -10 67 -21 103 -37 125 -47 62
-68 117 -73 195 -3 42 -12 88 -19 103 -8 15 -14 50 -14 77 0 62 -31 179 -71
267 -32 69 -29 83 12 84 25 0 89 29 125 57 20 15 56 28 91 34 32 5 81 14 108
19 28 5 74 9 103 9 56 1 108 22 158 64 51 43 97 56 187 54 80 -2 84 -1 161 42
58 32 96 45 143 51 47 6 81 18 131 48 47 28 95 46 162 62 52 11 122 29 155 40
33 10 74 17 90 15 52 -5 179 20 215 42 19 11 46 24 60 28 14 4 46 23 72 41 48
34 64 40 208 73 41 10 97 28 124 39 27 12 60 22 75 22 14 0 66 7 115 16 97 17
187 56 243 104 18 17 37 30 41 31 243 24 283 32 368 78 50 27 88 41 113 41 49
0 249 56 281 79 49 35 203 81 267 80 46 -1 72 5 112 25 67 34 131 46 180 34
31 -8 45 -6 77 10 22 10 71 29 109 41 150 46 171 54 205 76 19 13 51 26 70 30
19 4 50 19 68 33 26 20 50 26 125 33 50 5 103 14 117 19 14 5 53 12 87 15 39
4 72 15 91 28 16 12 58 35 93 50 35 16 82 38 104 50 24 13 69 24 110 27 44 4
90 16 125 33 31 14 89 31 130 38 41 6 93 17 115 25 22 7 63 16 91 20 36 4 60
15 88 39 48 41 129 65 236 69 173 7 255 32 381 113 99 64 125 72 241 75 94 3
106 5 139 30 19 15 56 37 82 48 41 18 54 20 103 11 53 -10 58 -9 124 24 38 19
71 39 75 45 3 5 27 10 52 10 63 0 161 28 201 57 34 26 202 73 258 73 19 0 61
15 96 34 35 18 84 36 111 40 26 3 61 13 78 22 17 8 57 20 90 25 33 5 84 20
113 33 30 13 86 31 126 40 40 9 99 28 131 42 33 13 91 31 130 39 73 16 140 35
224 65 56 20 98 31 235 61 52 12 106 27 120 34 51 26 145 55 181 55 59 0 123
24 178 68 57 45 80 51 226 56 117 5 250 39 315 81 29 18 64 38 78 43 37 14
161 42 212 48 53 6 70 13 155 63 46 27 82 41 105 41 38 0 195 47 247 73 21 12
65 18 130 21 107 4 134 12 179 49 48 40 73 49 148 52 39 2 91 10 116 18 57 20
175 82 220 118 42 33 140 54 209 44 28 -4 76 0 121 9 41 9 90 16 109 16 27 0
42 8 71 40 20 22 41 40 46 40 5 0 27 10 49 22 31 16 62 22 138 26 89 3 107 8
184 43 49 22 100 39 121 39 44 0 195 41 241 65 18 9 49 18 70 21 20 2 62 14
92 25 29 12 70 27 89 35 19 7 48 13 63 14 15 0 62 13 105 29 42 17 94 33 115
37 20 3 56 20 78 38 76 57 92 65 148 71 156 16 218 28 250 48 30 18 76 32 119
36 7 0 15 -7 18 -16z"/>
<path d="M14209 11219 c-8 -5 -28 -9 -45 -9 -19 0 -38 -8 -50 -21 -31 -35 -76
-53 -136 -55 -31 -1 -67 -10 -81 -19 -14 -9 -32 -13 -42 -9 -16 7 -17 3 -11
-42 4 -27 22 -83 40 -124 47 -107 54 -127 70 -207 8 -39 26 -89 39 -110 14
-21 39 -88 56 -149 17 -62 44 -134 61 -161 20 -32 35 -75 44 -128 14 -77 27
-123 59 -210 8 -22 18 -76 22 -120 4 -44 13 -105 21 -137 13 -50 81 -224 120
-303 19 -40 64 -199 64 -229 0 -12 9 -58 21 -102 12 -43 25 -99 30 -124 5 -25
17 -74 28 -110 10 -36 29 -100 42 -144 13 -43 28 -80 35 -83 6 -2 46 6 90 18
43 11 105 23 137 25 31 2 74 13 95 24 48 25 100 47 133 54 14 3 45 19 70 36
24 16 57 30 72 30 l29 0 -21 36 c-12 20 -30 73 -41 118 -19 81 -53 179 -85
247 -17 35 -20 37 -79 42 -48 4 -71 1 -105 -14 -25 -11 -48 -16 -51 -12 -4 5
-13 30 -19 57 -7 26 -25 74 -40 105 -31 60 -65 168 -76 240 -4 24 -25 94 -47
155 -22 61 -49 149 -60 196 -11 47 -26 101 -35 120 -8 19 -21 71 -29 115 -9
44 -24 99 -34 122 -23 52 -56 171 -66 238 -4 27 -18 74 -31 105 -26 57 -35 87
-97 330 -49 191 -55 207 -70 213 -7 3 -19 1 -27 -4z"/>
<path d="M13369 10961 c-35 -27 -106 -53 -151 -55 -28 -1 -45 -9 -66 -32 -28
-31 -29 -31 -118 -28 -94 4 -126 -4 -107 -28 6 -7 18 -41 27 -75 9 -35 28 -84
41 -109 14 -27 25 -64 25 -85 0 -21 8 -62 19 -91 10 -29 26 -109 36 -178 14
-107 22 -138 59 -215 38 -80 56 -137 95 -309 7 -27 25 -83 40 -125 40 -105 68
-198 76 -251 13 -81 42 -194 75 -280 17 -47 47 -141 65 -210 41 -153 93 -304
134 -389 17 -36 36 -90 42 -120 7 -31 14 -58 15 -60 2 -2 20 6 40 18 29 17 42
20 69 12 30 -8 46 -3 142 45 59 30 109 58 111 63 5 14 -54 219 -93 326 -20 55
-45 124 -56 152 -10 29 -19 65 -19 80 -1 56 -29 162 -63 234 -39 83 -62 178
-43 184 6 2 36 9 66 15 86 18 88 19 134 63 24 23 51 48 59 55 9 6 21 31 28 55
6 23 17 57 25 75 22 52 17 132 -16 234 -16 51 -39 134 -50 183 -11 50 -34 133
-49 185 -16 52 -37 133 -46 180 -28 134 -90 266 -172 364 -33 40 -142 106
-174 106 -10 0 -21 5 -24 10 -4 6 -28 10 -53 9 -26 -1 -58 2 -72 6 -18 4 -33
1 -51 -14z m148 -438 c50 -28 110 -116 123 -182 6 -31 22 -104 36 -162 28
-124 30 -169 8 -232 -14 -41 -20 -47 -43 -47 -26 0 -30 6 -54 78 -14 42 -31
100 -37 127 -6 28 -26 86 -45 130 -19 45 -42 114 -51 155 -9 41 -19 85 -21 97
-12 53 24 68 84 36z"/>
<path d="M12315 10643 c-16 -3 -39 -13 -50 -22 -30 -28 -115 -45 -277 -57 -60
-5 -70 -9 -113 -47 l-47 -42 15 -50 c8 -28 23 -101 32 -164 10 -63 36 -173 61
-250 24 -75 44 -152 44 -171 1 -19 7 -51 14 -70 29 -74 62 -146 79 -171 10
-15 24 -64 31 -110 7 -46 23 -111 34 -144 26 -75 59 -190 78 -274 8 -35 23
-76 34 -91 21 -29 70 -163 70 -191 0 -23 93 -302 130 -389 26 -62 33 -95 40
-190 5 -63 14 -132 22 -154 13 -38 14 -39 63 -40 48 -2 92 10 162 40 17 8 34
14 37 14 4 0 24 11 46 25 30 19 53 25 94 25 29 0 67 7 82 15 16 8 42 15 57 15
25 0 147 72 147 87 0 3 -18 63 -40 134 -22 70 -44 158 -49 196 -5 37 -14 87
-22 111 -12 43 -13 43 -48 37 -26 -4 -49 -20 -81 -55 -29 -32 -61 -55 -90 -66
-85 -30 -81 -33 -112 101 -35 148 -65 244 -113 358 -20 49 -35 94 -32 100 2 7
24 22 48 34 37 18 51 20 89 13 25 -5 60 -9 78 -10 37 0 41 17 16 65 -8 16 -19
60 -24 97 -7 60 -18 99 -66 243 -8 22 -24 57 -37 77 l-22 37 -58 -49 c-64 -54
-76 -58 -130 -35 -30 12 -37 21 -42 52 -15 97 -65 265 -90 309 -23 39 -50 132
-42 141 4 4 138 29 210 40 40 6 46 19 27 69 -6 15 -15 61 -21 103 -6 44 -24
107 -43 151 -19 41 -40 93 -49 115 -14 39 -16 40 -63 41 -27 1 -62 -1 -79 -3z"/>
<path d="M11596 10401 c-39 -26 -87 -32 -166 -22 -48 6 -69 5 -80 -4 -8 -7
-34 -22 -57 -35 -49 -27 -49 -28 -3 -145 15 -38 35 -108 44 -154 9 -47 23 -96
31 -110 33 -59 74 -150 80 -177 4 -16 17 -65 30 -109 12 -44 35 -123 50 -175
15 -52 30 -99 35 -105 7 -9 22 -66 61 -240 6 -27 28 -79 49 -115 25 -43 49
-106 70 -185 18 -66 37 -129 43 -140 6 -11 14 -63 18 -116 8 -106 31 -190 78
-289 17 -36 31 -72 31 -81 0 -8 11 -47 23 -85 13 -38 29 -91 35 -119 35 -168
34 -165 56 -165 12 0 30 7 41 16 15 11 35 13 86 8 56 -5 72 -3 110 16 24 13
55 31 68 41 13 11 32 19 42 19 10 0 20 4 23 9 5 8 -26 109 -68 218 -8 24 -21
75 -26 115 -13 86 -29 139 -81 269 -21 52 -41 122 -45 155 -4 32 -17 84 -29
114 -13 30 -30 82 -39 115 -8 33 -29 96 -45 141 -16 44 -35 109 -41 145 -6 35
-26 91 -45 124 -33 60 -85 230 -85 278 0 13 -16 76 -36 138 -19 63 -42 137
-49 164 -8 28 -24 68 -35 90 -11 21 -20 52 -20 67 0 15 -7 70 -15 120 -17 99
-68 221 -95 226 -8 1 -28 -7 -44 -17z"/>
<path d="M11015 10280 c-10 -11 -24 -20 -32 -20 -7 0 -30 -15 -50 -34 -21 -18
-55 -41 -77 -50 -29 -12 -37 -20 -32 -33 8 -19 43 -148 56 -198 4 -17 24 -70
45 -119 20 -48 41 -102 46 -119 4 -18 15 -57 23 -87 8 -30 25 -99 37 -154 12
-56 36 -125 55 -160 32 -61 68 -178 62 -198 -2 -6 -15 17 -28 52 -14 34 -44
84 -67 111 -23 27 -62 91 -86 142 -24 50 -65 117 -90 148 -26 31 -47 60 -47
65 0 5 -20 44 -45 87 -24 43 -60 117 -79 165 -50 127 -109 236 -128 240 -9 2
-31 -10 -50 -26 -29 -26 -41 -29 -95 -30 -48 0 -69 -5 -89 -21 -15 -12 -36
-21 -47 -21 -18 0 -19 -5 -14 -64 4 -39 18 -89 37 -131 17 -37 42 -111 55
-164 93 -373 120 -461 190 -621 82 -189 156 -424 148 -472 -15 -98 85 -457
156 -557 20 -27 30 -61 71 -236 37 -156 63 -235 77 -235 8 0 30 9 51 19 20 10
62 26 92 35 115 33 170 59 170 81 0 26 -90 281 -128 365 -29 64 -84 231 -97
299 -4 19 -20 64 -36 101 -28 66 -71 250 -61 260 2 3 7 -1 10 -9 3 -8 21 -46
42 -85 62 -120 77 -149 100 -199 13 -26 42 -72 66 -102 23 -31 50 -77 60 -103
10 -26 23 -56 30 -67 6 -11 17 -38 24 -60 7 -22 30 -71 50 -110 21 -38 59
-117 86 -175 26 -58 48 -106 49 -107 1 -2 19 6 40 17 22 11 48 20 60 20 11 0
57 18 103 40 46 22 89 40 97 40 20 0 19 9 -10 124 -14 54 -25 113 -25 130 0
46 -46 202 -68 234 -25 35 -64 158 -96 297 -24 102 -61 208 -100 283 -9 17
-16 49 -16 70 0 23 -17 79 -41 138 -29 69 -44 123 -51 178 -4 44 -20 107 -34
140 -55 132 -134 373 -134 411 -1 22 -19 92 -41 155 -23 63 -53 160 -68 215
-14 55 -30 106 -34 113 -13 19 -72 15 -92 -8z"/>
<path d="M9815 9916 c-33 -12 -86 -34 -117 -49 -44 -22 -64 -27 -89 -22 l-32
7 7 -33 c5 -19 12 -65 16 -104 20 -157 76 -363 149 -540 11 -27 29 -80 40
-117 11 -37 33 -87 49 -110 57 -83 64 -106 72 -227 4 -64 15 -141 25 -171 10
-30 29 -86 42 -125 12 -38 30 -103 38 -144 9 -41 37 -119 66 -179 40 -84 53
-124 65 -200 7 -52 27 -138 43 -191 16 -53 32 -114 36 -136 3 -22 22 -75 42
-117 39 -85 30 -79 128 -81 17 0 56 9 88 21 32 12 76 22 99 22 23 0 70 11 105
25 66 27 87 26 155 -2 67 -28 79 -8 54 90 -8 29 -17 89 -21 133 -8 98 -59 278
-91 321 -27 35 -52 37 -88 5 -60 -51 -118 -84 -140 -78 -26 6 -33 25 -42 108
-10 104 -35 204 -62 248 -35 59 -46 85 -61 144 -7 28 -21 69 -32 92 -10 24
-26 72 -34 107 -8 35 -22 81 -31 102 -8 21 -20 66 -25 99 -5 34 -20 88 -33
121 -55 138 -65 174 -70 246 -6 80 -32 169 -67 227 -11 19 -26 63 -34 97 -8
35 -33 107 -56 162 -22 54 -47 127 -55 163 -8 36 -16 75 -19 88 -7 28 -36 27
-120 -2z"/>
<path d="M9180 9683 c-49 -4 -104 -26 -135 -53 -24 -21 -62 -28 -210 -40 -60
-4 -112 -9 -114 -9 -12 -3 34 -211 64 -291 53 -138 95 -313 101 -410 10 -199
41 -354 88 -448 43 -87 60 -150 81 -297 9 -66 27 -158 41 -205 13 -46 24 -111
24 -143 0 -32 9 -94 20 -138 34 -130 51 -249 44 -296 -5 -36 -1 -54 24 -106
16 -34 42 -98 57 -142 15 -44 32 -84 36 -89 5 -6 18 -1 32 12 13 12 32 22 44
22 11 0 41 11 67 25 29 15 63 25 89 25 68 0 147 22 147 41 0 9 -20 72 -44 140
-37 108 -55 188 -60 278 -1 19 7 26 46 38 74 24 94 14 108 -55 17 -88 40 -154
65 -187 34 -46 53 -88 65 -141 17 -77 16 -75 47 -62 15 6 46 29 69 50 30 29
48 38 70 36 36 -2 184 66 184 85 0 30 -43 135 -80 199 -44 74 -110 253 -136
368 -24 111 -69 212 -146 330 -41 63 -75 127 -83 160 -9 30 -31 102 -49 160
-19 58 -37 121 -41 140 -14 67 -67 185 -96 216 -29 30 -70 132 -83 206 -7 38
-47 135 -91 218 -13 25 -29 77 -36 115 -13 80 -25 106 -86 193 -27 37 -51 61
-61 60 -10 -1 -37 -3 -62 -5z m48 -688 c35 -82 55 -150 77 -260 9 -44 25 -105
36 -136 10 -31 19 -62 19 -69 0 -23 62 -153 91 -191 27 -35 98 -169 118 -222
15 -39 -1 -64 -47 -76 -47 -13 -105 -11 -114 3 -4 6 -8 25 -8 42 0 17 -11 62
-24 101 -14 38 -30 110 -36 159 -7 49 -25 130 -40 179 -15 50 -33 126 -40 170
-17 121 -42 246 -55 285 -7 19 -15 55 -19 80 -7 50 -5 47 42 -65z"/>
<path d="M8140 9395 c-19 -7 -62 -19 -95 -25 -67 -14 -81 -18 -145 -47 -79
-35 -117 -44 -167 -38 -43 5 -52 2 -82 -24 l-34 -30 27 -98 c48 -177 69 -236
128 -360 32 -67 58 -130 58 -140 0 -10 7 -50 15 -88 8 -39 15 -86 15 -105 0
-20 16 -69 36 -110 50 -103 118 -289 142 -385 52 -207 64 -266 67 -327 2 -45
11 -84 28 -122 15 -31 29 -73 33 -94 7 -39 44 -128 95 -225 16 -31 39 -99 50
-150 11 -50 33 -133 50 -183 l30 -91 57 4 c51 3 79 6 119 11 6 1 26 14 44 29
25 21 43 28 78 28 l46 0 -3 35 c-2 19 -10 62 -19 95 -8 33 -19 83 -23 110 -4
28 -26 88 -49 134 -39 77 -42 90 -46 179 -4 88 -8 106 -48 197 -25 55 -56 134
-70 175 -15 41 -35 100 -46 130 -30 81 -28 107 9 115 16 4 35 3 41 0 12 -8 91
-174 109 -231 7 -21 29 -73 50 -114 21 -41 54 -133 75 -205 20 -71 47 -157 61
-190 21 -54 72 -225 88 -298 7 -28 8 -29 56 -22 26 4 91 1 144 -5 76 -10 102
-10 126 0 16 7 30 16 30 20 0 23 -44 179 -59 209 -43 86 -98 276 -111 382 -25
200 -34 231 -115 392 -65 129 -89 166 -147 227 -63 66 -73 73 -118 79 l-49 6
20 32 c14 22 33 36 60 43 61 17 64 31 39 180 -7 36 -18 81 -25 101 -7 19 -18
69 -24 110 -6 41 -24 109 -41 150 -18 40 -38 94 -46 119 -7 25 -29 77 -47 115
-19 39 -47 96 -62 127 -36 76 -97 145 -136 153 -17 4 -42 13 -57 21 -33 17
-115 17 -162 -1z m104 -529 c38 -50 83 -148 101 -217 9 -35 22 -81 30 -102 22
-57 18 -78 -22 -119 -53 -54 -69 -51 -78 17 -9 79 -41 185 -63 209 -34 38 -65
100 -83 166 -22 77 -15 88 50 82 32 -3 47 -11 65 -36z"/>
<path d="M7459 9149 c-23 -24 -31 -27 -57 -20 -17 5 -33 7 -36 4 -3 -3 -47 -6
-98 -7 -82 -1 -97 -4 -128 -26 -19 -14 -36 -25 -37 -25 -1 -1 9 -37 22 -80 13
-44 33 -122 45 -174 12 -52 26 -106 32 -120 5 -14 15 -58 23 -97 7 -40 27 -98
43 -130 43 -84 72 -186 82 -285 5 -47 17 -103 26 -125 9 -21 23 -63 30 -92 8
-29 23 -71 35 -93 11 -22 33 -91 49 -152 75 -287 93 -344 210 -657 33 -91 33
-124 -2 -133 -30 -8 -52 6 -96 62 -44 56 -85 173 -132 382 -17 74 -39 161 -50
194 -10 33 -24 96 -30 139 -8 59 -21 102 -55 170 -46 93 -115 299 -115 342 0
14 -11 50 -24 82 -27 65 -42 118 -50 181 -3 24 -21 82 -40 131 -41 102 -66
204 -66 264 0 57 -42 170 -65 174 -45 9 -110 -21 -161 -74 l-51 -54 -92 7
c-50 3 -91 2 -91 -2 0 -4 15 -36 34 -69 33 -59 86 -203 86 -233 0 -8 7 -27 15
-43 9 -17 20 -67 26 -112 6 -46 20 -105 31 -133 10 -27 26 -90 34 -140 15 -93
51 -187 91 -242 13 -18 32 -53 44 -79 44 -104 112 -368 133 -516 4 -26 32
-122 61 -213 30 -90 59 -191 64 -222 33 -201 195 -374 391 -418 90 -20 235
-13 298 14 36 17 54 31 58 47 4 13 19 35 34 47 33 29 45 50 54 101 4 21 13 52
20 70 29 68 35 106 37 216 2 109 0 119 -31 195 -18 44 -36 85 -40 90 -15 19
-41 121 -50 196 -5 41 -18 102 -29 135 -12 32 -25 93 -30 134 -12 91 -24 126
-67 197 -18 30 -38 81 -45 112 -7 31 -26 85 -44 121 -50 102 -75 184 -75 249
0 58 -10 96 -83 321 -19 58 -42 151 -51 208 -16 103 -45 213 -56 211 -3 -1
-17 -14 -31 -30z"/>
<path d="M6476 8891 c-4 -5 -37 -9 -76 -10 -107 -1 -142 -14 -215 -82 -27 -25
-40 -29 -125 -35 -52 -4 -106 -12 -120 -19 -14 -7 -48 -18 -77 -24 -28 -7 -59
-21 -68 -31 -9 -10 -36 -23 -61 -30 -24 -7 -44 -17 -44 -22 0 -5 7 -25 16 -46
9 -20 24 -71 34 -113 11 -41 30 -106 44 -143 14 -38 26 -85 26 -105 0 -45 8
-56 42 -65 25 -6 171 14 209 29 11 4 19 0 24 -12 45 -114 78 -223 104 -348 33
-151 38 -169 85 -282 18 -42 29 -94 36 -163 5 -57 23 -147 41 -208 18 -59 38
-132 45 -162 17 -73 81 -258 136 -395 25 -60 50 -131 56 -157 7 -26 26 -69 42
-95 17 -26 30 -58 30 -72 0 -47 13 -55 51 -35 19 10 57 19 84 20 100 3 157 14
195 37 l38 22 -28 107 c-16 61 -43 134 -64 171 -20 36 -36 78 -36 94 0 15 -9
71 -21 123 -11 52 -27 136 -35 185 -17 104 -59 238 -79 255 -8 7 -24 37 -35
68 -12 31 -25 61 -30 67 -16 20 -61 181 -74 265 -7 47 -25 114 -39 150 -14 36
-28 85 -32 110 -4 25 -22 90 -40 145 -20 60 -35 131 -39 177 l-6 78 40 25 c33
21 48 24 86 20 85 -11 86 3 14 205 -26 74 -56 160 -65 190 -31 100 -40 120
-52 120 -6 0 -14 -4 -17 -9z"/>
<path d="M13377 8789 c-10 -6 -39 -12 -65 -14 -36 -3 -52 -10 -67 -30 -16 -19
-30 -25 -58 -25 -46 0 -47 -9 -13 -124 13 -44 31 -119 40 -166 23 -123 35
-160 60 -185 21 -21 30 -22 92 -18 38 3 84 12 103 19 18 8 42 14 53 14 17 0
19 5 14 28 -4 15 -13 68 -22 117 -20 117 -41 188 -72 250 -14 28 -30 71 -36
97 -10 41 -13 45 -29 37z"/>
<path d="M5481 8588 c-14 -5 -37 -6 -51 -3 -38 8 -108 -26 -131 -65 -17 -28
-23 -31 -50 -25 -36 8 -89 -11 -89 -32 0 -8 18 -51 40 -96 21 -45 49 -118 61
-162 11 -44 30 -102 41 -130 11 -27 40 -104 63 -170 69 -196 81 -229 105 -274
12 -24 26 -73 31 -108 5 -36 20 -104 33 -151 13 -48 27 -117 30 -154 6 -66 54
-234 95 -333 23 -58 81 -263 81 -290 0 -22 19 -88 76 -271 25 -77 49 -170 54
-206 15 -103 23 -118 66 -118 20 0 75 13 123 29 47 17 111 33 141 37 66 8 102
25 123 57 27 42 78 66 155 73 40 4 72 9 72 11 0 2 -13 29 -29 61 -15 31 -31
70 -35 87 -4 16 -19 55 -33 85 -14 30 -31 89 -38 130 -18 100 -22 108 -56 115
-30 7 -127 -25 -160 -52 -8 -7 -21 -13 -27 -13 -16 0 -60 101 -77 175 -38 173
-51 216 -81 280 -18 39 -35 88 -39 110 -4 22 -18 81 -32 130 -26 92 -36 125
-72 230 -11 33 -35 116 -52 185 -17 69 -38 143 -48 165 -10 22 -25 63 -34 90
-8 28 -27 80 -40 117 -14 37 -29 89 -32 115 -4 26 -15 75 -25 108 -16 51 -29
109 -55 250 -3 16 -12 21 -42 21 -21 1 -49 -3 -62 -8z"/>
<path d="M4970 8448 c-19 -10 -52 -18 -74 -18 -31 0 -47 -8 -82 -40 -30 -27
-56 -42 -84 -46 -23 -4 -50 -14 -61 -23 -20 -16 -20 -16 2 -66 12 -28 32 -62
45 -77 12 -15 25 -42 29 -60 4 -18 20 -77 36 -130 16 -53 36 -141 43 -195 7
-54 27 -143 44 -198 16 -55 33 -117 36 -137 4 -20 25 -64 47 -97 44 -66 74
-178 64 -235 -4 -21 1 -50 15 -86 12 -30 37 -98 55 -150 18 -52 45 -126 59
-165 15 -38 37 -115 48 -170 11 -55 30 -135 44 -178 29 -93 32 -172 8 -181
-29 -11 -54 17 -95 109 -22 50 -51 113 -64 140 -29 63 -94 258 -129 390 -15
55 -34 120 -43 145 -19 57 -48 172 -69 275 -9 44 -28 118 -42 165 -13 47 -35
123 -48 170 -53 187 -68 236 -117 380 -14 41 -42 128 -61 192 -38 122 -57 154
-85 142 -9 -4 -34 -13 -56 -21 -22 -8 -81 -32 -131 -53 -50 -22 -99 -40 -109
-40 -14 0 -16 -7 -12 -37 14 -107 29 -175 52 -243 14 -41 37 -121 50 -177 14
-56 36 -126 49 -155 13 -29 29 -70 36 -91 7 -22 18 -51 26 -65 8 -15 14 -35
14 -46 0 -27 50 -207 67 -239 7 -15 25 -67 39 -115 14 -48 36 -114 50 -147 25
-63 53 -204 54 -266 0 -40 55 -210 92 -284 14 -27 31 -67 38 -89 22 -68 156
-340 184 -373 25 -30 98 -63 138 -63 11 0 33 -7 50 -16 16 -9 55 -22 85 -30
56 -15 60 -14 123 26 8 5 33 17 55 27 22 9 54 32 71 50 22 23 40 33 62 33 35
0 59 25 96 104 30 61 51 244 40 346 -12 124 -170 641 -215 705 -37 53 -62 141
-88 310 -25 160 -34 192 -89 330 -22 55 -64 174 -92 265 -29 91 -63 199 -76
240 -13 41 -38 120 -55 175 -17 55 -31 100 -32 100 -1 1 -18 -7 -37 -17z"/>
<path d="M4035 8150 c-10 -11 -22 -20 -27 -20 -6 0 -21 -9 -35 -20 -21 -16
-41 -20 -102 -20 -127 0 -119 20 -115 -307 5 -292 7 -312 65 -518 20 -72 37
-205 26 -205 -3 0 -16 32 -27 71 -12 40 -44 119 -72 178 -29 61 -53 130 -58
161 -4 30 -22 109 -39 175 -17 65 -34 149 -37 185 -4 40 -17 88 -35 127 -16
34 -29 67 -29 72 0 29 -134 -3 -180 -43 -8 -8 -33 -17 -55 -21 -39 -7 -94 -32
-128 -59 -17 -13 -17 -17 -2 -71 10 -31 25 -76 36 -99 10 -24 21 -69 25 -102
4 -32 17 -86 30 -118 13 -33 24 -77 24 -99 0 -21 13 -69 29 -105 16 -37 37
-96 46 -132 9 -36 32 -92 50 -125 18 -33 43 -101 55 -150 11 -50 30 -103 42
-119 14 -20 23 -53 29 -105 4 -42 12 -87 17 -101 5 -14 15 -59 21 -100 7 -40
21 -94 32 -119 42 -92 88 -234 114 -346 8 -38 26 -90 39 -115 13 -25 32 -83
41 -130 10 -47 30 -126 45 -176 16 -50 32 -112 35 -139 7 -46 8 -47 38 -41 17
4 40 13 51 21 96 71 84 67 176 60 47 -3 100 -11 118 -17 18 -5 36 -8 38 -5 3
3 -8 31 -24 63 -16 33 -35 84 -42 114 -7 30 -30 90 -51 133 -44 87 -79 216
-79 293 0 28 -11 88 -25 134 -14 46 -25 90 -25 97 0 8 -12 40 -26 71 -59 129
-77 223 -23 117 17 -33 42 -72 54 -87 13 -15 35 -60 51 -100 15 -40 35 -84 45
-98 21 -31 39 -95 39 -138 0 -42 15 -76 100 -222 37 -63 82 -152 101 -197 19
-45 39 -83 44 -83 6 0 34 14 64 30 45 25 66 30 120 30 47 0 75 6 97 19 17 10
45 22 63 26 25 5 31 11 25 23 -4 10 -26 71 -48 137 -37 108 -59 154 -135 289
-12 22 -48 69 -78 105 -31 36 -67 89 -79 118 -13 28 -28 54 -33 58 -6 3 -15
25 -21 48 -44 168 -70 230 -138 326 -74 104 -101 189 -108 339 -4 95 -13 156
-36 242 -27 99 -32 139 -37 290 -4 96 -10 181 -14 187 -12 20 -34 223 -29 271
5 53 -8 70 -33 42z"/>
<path d="M2935 7854 c-101 -16 -143 -30 -175 -59 -14 -12 -52 -32 -85 -43 -33
-11 -80 -28 -105 -37 -25 -10 -72 -19 -104 -21 -33 -2 -61 -6 -64 -8 -12 -13
56 -262 92 -331 16 -31 37 -119 61 -253 10 -55 24 -89 54 -135 44 -68 71 -135
71 -176 0 -23 11 -76 66 -301 8 -36 21 -94 28 -130 18 -91 32 -131 87 -240 72
-144 102 -227 110 -310 4 -41 15 -102 23 -135 9 -33 16 -77 16 -97 0 -44 42
-180 69 -224 10 -17 26 -55 35 -85 9 -30 24 -65 34 -78 l19 -23 39 25 c31 20
57 26 129 31 73 5 96 11 125 31 22 15 50 25 72 25 19 0 41 6 47 14 23 27 92
55 124 49 27 -4 37 1 61 27 l28 32 -15 62 c-9 33 -21 86 -27 116 -6 30 -24 99
-41 152 l-31 97 -47 1 c-25 0 -66 0 -91 1 -50 1 -156 -14 -182 -25 -18 -8 -18
-6 -63 216 -13 64 -35 139 -48 165 -13 26 -27 62 -31 78 -4 17 -9 38 -12 47
-8 25 33 38 134 44 108 5 124 13 110 56 -6 18 -17 60 -26 93 -8 33 -35 117
-60 186 l-46 125 -70 3 c-39 1 -96 2 -127 2 -55 0 -57 1 -72 37 -63 145 -107
274 -112 332 l-6 65 39 28 c22 15 45 27 50 27 6 0 25 16 43 35 19 19 38 35 44
35 22 0 35 22 24 43 -6 10 -24 83 -41 160 -30 145 -35 170 -44 245 -3 24 -10
41 -17 41 -7 -1 -48 -7 -92 -15z"/>
<path d="M2161 7615 c-18 -8 -37 -12 -43 -9 -10 6 -103 -30 -127 -49 -7 -6
-34 -18 -59 -27 -65 -22 -70 -35 -37 -104 16 -34 40 -118 56 -201 16 -79 35
-158 43 -177 21 -49 84 -242 107 -328 11 -41 28 -104 39 -140 10 -36 21 -83
25 -105 4 -22 17 -65 30 -95 26 -60 57 -164 75 -250 11 -52 23 -85 76 -210 12
-30 30 -100 39 -155 18 -114 37 -186 70 -265 23 -56 62 -190 71 -245 2 -16 15
-61 28 -100 13 -38 29 -96 36 -128 l12 -58 34 31 c19 16 43 30 53 30 9 0 28
11 40 24 24 26 52 33 148 39 63 4 93 18 93 44 0 8 -18 88 -40 177 -36 146 -49
187 -95 291 -32 74 -65 186 -75 258 -8 54 -24 104 -55 171 -26 55 -49 120 -55
159 -6 36 -24 100 -41 142 -16 42 -37 113 -45 158 -7 45 -23 109 -34 142 -35
105 -106 366 -175 644 -37 149 -54 201 -91 268 -25 46 -50 83 -57 83 -7 -1
-27 -7 -46 -15z"/>
<path d="M1576 7439 c-34 -5 -68 -17 -80 -28 -12 -10 -36 -22 -54 -26 -41 -9
-48 -24 -28 -64 9 -17 26 -72 37 -123 12 -51 30 -110 40 -131 39 -84 89 -294
89 -379 0 -35 7 -88 15 -118 8 -30 22 -84 31 -120 8 -36 24 -84 35 -108 23
-52 24 -58 3 -41 -18 15 -36 47 -82 149 -62 137 -82 194 -93 258 -11 74 -54
164 -113 242 -23 30 -52 72 -65 93 -12 20 -26 37 -30 37 -3 0 -33 45 -65 100
-32 55 -62 100 -67 100 -14 0 -119 -52 -125 -61 -3 -5 -17 -9 -32 -9 -22 0
-93 -29 -111 -45 -4 -4 33 -140 60 -220 11 -33 27 -89 35 -125 8 -36 33 -121
55 -190 76 -237 88 -275 94 -309 4 -18 25 -70 46 -115 24 -50 47 -119 59 -177
10 -51 25 -110 33 -129 8 -19 18 -62 22 -95 9 -71 65 -246 105 -328 16 -32 34
-83 41 -115 6 -31 22 -93 34 -137 13 -44 26 -111 30 -150 4 -38 16 -94 26
-124 11 -30 19 -64 19 -76 0 -24 29 -115 40 -128 4 -5 21 -10 36 -12 16 -2 47
-7 69 -10 54 -9 118 9 159 45 18 17 40 30 47 30 42 1 42 15 0 138 -22 66 -50
159 -61 206 -11 48 -31 112 -44 144 -13 31 -27 71 -30 88 -4 18 -20 52 -36 77
-46 73 -90 214 -90 289 0 35 -7 85 -16 111 -9 26 -14 52 -12 59 7 20 59 -99
68 -157 9 -55 56 -158 96 -211 13 -17 37 -60 53 -96 16 -36 45 -85 64 -110 49
-64 57 -81 68 -147 5 -32 19 -80 31 -107 22 -51 108 -184 132 -203 18 -15 41
-5 61 25 14 22 22 25 83 24 37 0 92 3 122 7 47 7 55 11 52 28 -23 170 -68 375
-102 465 -16 41 -36 100 -46 130 -9 30 -23 66 -30 80 -29 54 -86 234 -105 330
-6 30 -25 100 -43 155 -19 55 -43 132 -54 170 -11 39 -38 122 -60 185 -21 63
-49 160 -61 215 -13 55 -32 127 -43 160 -10 33 -35 112 -54 175 -20 63 -47
147 -61 185 -22 61 -34 109 -49 191 -2 12 -14 24 -26 27 -13 3 -32 8 -43 10
-11 3 -47 1 -79 -4z"/>
</g>
</svg>
